<svg width="221" height="28" viewBox="0 0 221 28" fill="none" xmlns="http://www.w3.org/2000/svg">
<path d="M198.948 26.8347C198.727 26.8353 198.617 26.7416 198.616 26.5538L198.526 0.751983C198.526 0.564138 198.636 0.469937 198.857 0.469383L200.75 0.464626C200.939 0.464151 201.034 0.557836 201.034 0.745681L201.074 12.2579L218.441 12.2142L218.401 0.702042C218.401 0.514197 218.495 0.420036 218.684 0.419561L220.577 0.414805C220.798 0.41425 220.909 0.507895 220.91 0.69574L220.999 26.4975C221 26.6854 220.89 26.7796 220.669 26.7801L218.776 26.7849C218.587 26.7854 218.492 26.6917 218.491 26.5039L218.448 14.1061L201.081 14.1497L201.124 26.5475C201.125 26.7353 201.03 26.8295 200.841 26.83L198.948 26.8347Z" fill="#828AA2"/>
<path d="M182.206 27.3599C178.515 27.3691 175.689 26.5846 173.727 25.0063C171.797 23.4278 170.827 21.1895 170.817 18.2914L170.785 9.15406C170.775 6.25588 171.746 4.01271 173.696 2.42453C175.647 0.836351 178.467 0.0376252 182.158 0.0283505C184.556 0.0223259 186.639 0.365949 188.409 1.05922C190.178 1.72565 191.506 2.7018 192.394 3.98766C193.282 5.27352 193.618 6.82911 193.404 8.65444C193.372 8.73503 193.325 8.81565 193.263 8.89632C193.231 8.9769 193.153 9.01735 193.026 9.01767L191.181 9.0223C190.928 9.02294 190.833 8.92925 190.896 8.74125C191.046 6.54039 190.33 4.86499 188.749 3.71505C187.199 2.53819 185.02 1.9533 182.212 1.96035C179.342 1.96756 177.135 2.59032 175.594 3.82861C174.052 5.0669 173.286 6.83995 173.294 9.14775L173.325 18.2851C173.333 20.5929 174.112 22.362 175.662 23.5926C177.213 24.8231 179.423 25.4347 182.294 25.4275C185.165 25.4203 187.355 24.8378 188.866 23.6801C190.376 22.5224 191.064 20.8301 190.93 18.6031C190.866 18.4154 190.961 18.3213 191.213 18.3206L193.059 18.316C193.248 18.3155 193.375 18.4359 193.439 18.6773C193.571 20.4749 193.198 22.0189 192.319 23.3092C191.44 24.5995 190.134 25.5957 188.402 26.2977C186.7 26.9997 184.635 27.3538 182.206 27.3599Z" fill="#828AA2"/>
<path d="M149.587 26.9587C149.366 26.9593 149.255 26.8657 149.255 26.6778L149.165 0.876006C149.164 0.688161 149.274 0.593961 149.495 0.593406L166.153 0.551551C166.373 0.550996 166.484 0.644641 166.485 0.832487L166.49 2.24132C166.49 2.42917 166.38 2.52337 166.159 2.52392L151.679 2.56031L151.714 12.5429L165.106 12.5093C165.326 12.5087 165.437 12.6023 165.438 12.7902L165.442 14.1185C165.443 14.3064 165.333 14.4006 165.112 14.4011L151.72 14.4348L151.757 24.9809L166.237 24.9445C166.458 24.944 166.569 25.0376 166.569 25.2255L166.574 26.6343C166.575 26.8221 166.465 26.9163 166.244 26.9169L149.587 26.9587Z" fill="#828AA2"/>
<path d="M133.922 26.9982C133.732 26.9987 133.637 26.905 133.637 26.7172L133.553 2.60595L124.231 2.62938C124.01 2.62993 123.899 2.53628 123.898 2.34844L123.894 0.939605C123.893 0.75176 124.003 0.657559 124.224 0.657005L145.329 0.603972C145.55 0.603418 145.661 0.697063 145.662 0.884908L145.666 2.29374C145.667 2.48159 145.557 2.57579 145.336 2.57634L136.061 2.59965L136.145 26.7109C136.145 26.8987 136.035 26.9929 135.815 26.9935L133.922 26.9982Z" fill="#828AA2"/>
<path d="M88.4585 27.0999C88.143 27.1006 87.9375 26.967 87.8419 26.6989L79.3776 1.28038C79.2502 0.931847 79.4231 0.756983 79.8963 0.755794L84.4865 0.74426C84.8335 0.743388 85.0391 0.877048 85.1031 1.14524L89.696 15.5442C89.9508 16.2413 90.1584 16.9787 90.3189 17.7565C90.5109 18.5343 90.687 19.2986 90.8474 20.0496C91.0392 20.7737 91.2151 21.4575 91.3751 22.1012L91.4697 22.1009C91.7819 21.1609 92.0942 20.2343 92.4065 19.3211C92.7187 18.3811 93.0467 17.4411 93.3905 16.501L96.9528 6.67035L95.1848 1.76395C95.1212 1.6031 95.1365 1.4823 95.2309 1.40156C95.3567 1.2939 95.4985 1.23988 95.6562 1.23948L100.294 1.22783C100.609 1.22704 100.799 1.36073 100.863 1.62893L105.647 16.5507C105.966 17.4623 106.253 18.3874 106.508 19.326C106.764 20.2377 107.02 21.1495 107.275 22.0612L107.322 22.0611C107.478 21.4167 107.633 20.7051 107.788 19.9265C107.975 19.1478 108.161 18.3692 108.348 17.5905C108.535 16.7849 108.721 16.0331 108.908 15.3349L113.212 1.07461C113.274 0.806101 113.479 0.67141 113.826 0.670538L118.558 0.658648C119 0.657538 119.158 0.831569 119.033 1.18074L110.982 26.6407C110.888 26.9093 110.684 27.044 110.368 27.0448L104.69 27.0591C104.343 27.0599 104.121 26.9263 104.026 26.6582L101.252 18.3731C100.934 17.4347 100.615 16.4962 100.296 15.5578C100.009 14.6193 99.7377 13.7076 99.4822 12.8227L99.3876 12.8229C99.0752 13.7093 98.7628 14.609 98.4505 15.5222C98.1698 16.4353 97.8575 17.3619 97.5137 18.302L94.5617 26.7222C94.4363 26.9641 94.2317 27.0853 93.9478 27.0861L88.4585 27.0999Z" fill="#233A80"/>
<path d="M66.6152 27.6378C62.4509 27.6482 59.3247 26.8108 57.2367 25.1254C55.1486 23.4132 54.099 20.9604 54.0879 17.7671L54.0617 10.2399C54.0505 7.01967 55.0831 4.56166 57.1594 2.86582C59.2357 1.16999 62.356 0.316841 66.5203 0.306377C70.653 0.295993 73.7634 1.13349 75.8514 2.81886C77.9394 4.50423 78.989 6.95701 79.0002 10.1772L79.0264 17.7044C79.0375 20.8978 78.0049 23.3558 75.9287 25.0785C73.8524 26.7743 70.7479 27.6274 66.6152 27.6378ZM66.6005 23.4113C68.8404 23.4056 70.5265 22.905 71.6587 21.9092C72.7909 20.8866 73.3536 19.4093 73.3469 17.4772L73.3225 10.433C73.3158 8.50087 72.7428 7.03979 71.6037 6.04975C70.4644 5.03288 68.7748 4.52725 66.5349 4.53288C64.295 4.53851 62.5932 5.05266 61.4295 6.07532C60.2972 7.07106 59.7345 8.535 59.7412 10.4671L59.7656 17.5113C59.7723 19.4434 60.3453 20.9179 61.4846 21.9348C62.6553 22.9247 64.3606 23.4169 66.6005 23.4113Z" fill="#233A80"/>
<path d="M29.5828 27.2478C29.2358 27.2487 29.0617 27.0881 29.0606 26.7661L28.9724 1.36682C28.9713 1.0448 29.1442 0.883353 29.4912 0.882481L39.4288 0.857511C43.4984 0.847285 46.4663 1.51071 48.3322 2.84778C50.1981 4.15801 51.1355 6.08779 51.1443 8.63711C51.1508 10.4887 50.6515 12.0598 49.6464 13.3505C48.6728 14.6142 47.2089 15.49 45.2546 15.9779L45.2549 16.0584L52.9104 26.6257C53.0372 26.7864 53.0534 26.9205 52.9591 27.0281C52.8964 27.1356 52.7546 27.1896 52.5338 27.1902L47.2811 27.2034C46.9972 27.2041 46.776 27.0973 46.6175 26.883L39.4365 16.7171L34.7044 16.729L34.7392 26.7518C34.7403 27.0739 34.5516 27.2353 34.173 27.2363L29.5828 27.2478ZM34.6911 12.905L39.234 12.8936C41.4108 12.8881 42.987 12.5621 43.9628 11.9156C44.9701 11.2691 45.4712 10.2346 45.4663 8.81239C45.4615 7.41697 45.0006 6.42523 44.0836 5.83716C43.1667 5.24909 41.6198 4.95779 39.443 4.96326L34.6636 4.97527L34.6911 12.905Z" fill="#233A80"/>
<path d="M11.5941 27.776C9.29109 27.7818 7.27072 27.4112 5.53299 26.6642C3.79516 25.8903 2.45047 24.7666 1.49891 23.2931C0.547351 21.8195 0.067844 20.0094 0.0603886 17.8626L0.0345278 10.4159C0.0233447 7.19567 1.11899 4.73749 3.32146 3.04134C5.55539 1.31828 8.61253 0.45187 12.4929 0.44212C15.2691 0.435144 17.605 0.804967 19.5004 1.55159C21.4274 2.29813 22.835 3.34117 23.723 4.6807C24.6424 5.99331 24.9631 7.50869 24.6852 9.22684C24.6548 9.54894 24.466 9.71043 24.119 9.7113L19.5287 9.68258C19.1501 9.68353 18.976 9.52296 19.0064 9.20086C19.0662 8.23464 18.8583 7.41669 18.3827 6.74701C17.9386 6.05041 17.2428 5.52887 16.2951 5.18239C15.3475 4.83592 14.1323 4.66454 12.6496 4.66827C10.3466 4.67406 8.61312 5.16144 7.44921 6.13044C6.2852 7.07259 5.70665 8.53656 5.71354 10.5224L5.73856 17.7275C5.74555 19.7402 6.31854 21.2147 7.45752 22.151C8.62805 23.0873 10.349 23.5526 12.6205 23.5469C14.8288 23.5413 16.5151 23.1077 17.6794 22.2461C18.8436 21.3576 19.4228 20.0815 19.417 18.4177L19.4126 17.1296L13.0241 17.1457C12.6456 17.1466 12.4557 16.9861 12.4546 16.6641L12.4452 13.9672C12.4442 13.672 12.633 13.5239 13.0116 13.523L24.2741 13.4947C24.6211 13.4938 24.7952 13.641 24.7962 13.9361L24.8219 21.3426C24.8251 22.255 24.8441 23.1807 24.8789 24.1199C24.9452 25.059 25.0587 25.9308 25.2192 26.7355C25.2829 26.8963 25.2518 27.0306 25.126 27.1382C25.0316 27.219 24.9055 27.2595 24.7478 27.2599L21.0567 27.2692C20.899 27.2696 20.7727 27.2431 20.6779 27.1897C20.5829 27.1094 20.5037 27.0022 20.4401 26.8682C20.3759 26.5464 20.3115 26.1574 20.2468 25.7014C20.2137 25.2453 20.1806 24.8026 20.1475 24.3733L20.0529 24.3735C19.519 25.0726 18.8428 25.6781 18.0244 26.19C17.2374 26.7018 16.3081 27.0933 15.2364 27.3643C14.1647 27.6354 12.9506 27.7726 11.5941 27.776Z" fill="#233A80"/>
</svg>
